<svg width="64" height="49" viewBox="0 0 64 49" fill="none" xmlns="http://www.w3.org/2000/svg">
<path d="M6.4 48.6667C4.64 48.6667 3.13387 47.9958 1.8816 46.6541C0.629333 45.3124 0.00213333 43.6975 0 41.8095V7.52383C0 5.63811 0.6272 4.0244 1.8816 2.68269C3.136 1.34097 4.64213 0.668973 6.4 0.666687H57.6C59.36 0.666687 60.8672 1.33869 62.1216 2.68269C63.376 4.02669 64.0021 5.6404 64 7.52383V41.8095C64 43.6953 63.3739 45.3101 62.1216 46.6541C60.8693 47.9981 59.3621 48.669 57.6 48.6667H6.4ZM6.4 41.8095H57.6V7.52383H6.4V41.8095ZM19.2 38.381H44.8V31.5238H19.2V38.381ZM9.6 28.0953H16V21.2381H9.6V28.0953ZM19.2 28.0953H25.6V21.2381H19.2V28.0953ZM28.8 28.0953H35.2V21.2381H28.8V28.0953ZM38.4 28.0953H44.8V21.2381H38.4V28.0953ZM48 28.0953H54.4V21.2381H48V28.0953ZM9.6 17.8095H16V10.9524H9.6V17.8095ZM19.2 17.8095H25.6V10.9524H19.2V17.8095ZM28.8 17.8095H35.2V10.9524H28.8V17.8095ZM38.4 17.8095H44.8V10.9524H38.4V17.8095ZM48 17.8095H54.4V10.9524H48V17.8095Z" fill="#C2C2FE"/>
</svg>
