<svg width="68" height="51" viewBox="0 0 68 51" fill="none" xmlns="http://www.w3.org/2000/svg">
<path d="M14.5217 28.5532H53.4783M34 28.5532V50M18.6957 23.4468V14.2553H15.4344C13.5813 14.2554 11.7809 14.708 10.3168 15.5419C8.85278 16.3758 7.80837 17.5436 7.34817 18.8613L2 34.1702V34.6809H21.4783V37.7447C21.4783 40.8085 21.4783 42.8511 23.5652 45.9149C23.5652 45.9149 25.6522 48.9788 28.4348 48.9788M49.3043 23.4468V14.2553H52.5656C54.4187 14.2554 56.2191 14.708 57.6832 15.5419C59.1472 16.3758 60.1916 17.5436 60.6518 18.8613L66 34.1702V34.6809H46.5217V37.7447C46.5217 40.8085 46.5217 42.8511 44.4348 45.9149C44.4348 45.9149 42.3478 48.9788 39.5652 48.9788M18.2783 10.1702C18.2783 10.1702 13.8261 8.12769 13.8261 5.5745C13.8261 4.62757 14.3385 3.71943 15.2507 3.04986C16.1629 2.38028 17.4001 2.00412 18.6901 2.00412C19.9801 2.00412 21.2173 2.38028 22.1295 3.04986C23.0416 3.71943 23.5541 4.62757 23.5541 5.5745C23.5541 8.12769 19.113 10.1702 19.113 10.1702H18.2783ZM49.7217 10.1702C49.7217 10.1702 54.1739 8.12769 54.1739 5.5745C54.1739 4.62649 53.6609 3.71731 52.7476 3.04697C51.8344 2.37663 50.5958 2.00003 49.3043 2.00003C46.6163 2.00003 44.4459 3.60139 44.4459 5.5745C44.4459 8.12769 48.887 10.1702 48.887 10.1702H49.7217Z" stroke="#C2C2FE" stroke-width="4"/>
</svg>
